<?xml version="1.0" standalone="no"?>
<!DOCTYPE svg PUBLIC "-//W3C//DTD SVG 20010904//EN"
 "http://www.w3.org/TR/2001/REC-SVG-20010904/DTD/svg10.dtd">
<svg version="1.0" xmlns="http://www.w3.org/2000/svg"
 width="512.000000pt" height="512.000000pt" viewBox="0 0 512.000000 512.000000"
 preserveAspectRatio="xMidYMid meet">
<metadata>
Created by potrace 1.14, written by Peter Selinger 2001-2017
</metadata>
<g transform="translate(0.000000,512.000000) scale(0.100000,-0.100000)"
fill="#000000" stroke="none">
<path d="M2084 4947 c-54 -21 -100 -59 -130 -106 -23 -39 -28 -57 -28 -116 0
-79 18 -127 66 -174 47 -46 95 -65 176 -69 l72 -4 0 -79 c0 -43 -3 -79 -7 -80
-5 0 -26 -2 -48 -4 -45 -3 -137 -13 -175 -20 -14 -2 -41 -6 -60 -9 -223 -35
-531 -155 -735 -286 -16 -11 -37 -23 -45 -27 -8 -3 -17 -9 -20 -12 -3 -3 -48
-38 -100 -78 -240 -181 -447 -433 -590 -718 -112 -222 -178 -450 -210 -720 -8
-68 -6 -410 3 -450 2 -11 7 -41 11 -66 62 -425 262 -825 572 -1145 58 -58 168
-158 209 -186 5 -4 24 -18 40 -31 129 -98 339 -212 499 -272 195 -72 406 -118
602 -130 l50 -3 2 36 c2 20 4 37 5 38 1 1 65 4 142 8 77 3 162 8 188 12 36 4
69 -1 130 -20 75 -22 178 -46 267 -61 19 -4 107 -8 195 -10 285 -5 512 42 755
160 103 49 100 48 210 119 391 254 673 703 733 1166 8 58 13 142 13 187 -1
125 17 117 -311 121 -209 2 -273 6 -269 15 5 13 12 77 13 119 1 26 3 28 40 24
28 -3 41 1 45 10 7 17 0 369 -8 404 -3 14 -10 56 -16 94 -6 37 -17 96 -26 130
-8 33 -17 71 -19 83 -37 172 -224 546 -352 703 -101 126 -186 217 -268 289
-33 29 -69 61 -80 70 -11 10 -76 56 -145 103 -136 93 -324 189 -464 237 -104
37 -298 86 -376 96 -30 4 -73 9 -95 12 -22 3 -60 6 -85 8 -25 2 -48 3 -52 4
-5 1 -8 37 -8 81 l0 80 80 0 80 0 0 80 0 80 -80 0 -80 0 -1 43 c-1 62 -6 99
-18 129 -16 41 -80 107 -120 124 -49 21 -139 26 -177 11z m115 -162 c31 -16
41 -39 41 -102 l0 -43 -44 0 c-61 0 -94 15 -107 47 -12 33 -5 67 21 93 24 24
51 25 89 5z"/>
</g>
</svg>
